<svg xmlns="http://www.w3.org/2000/svg" width="920" height="408" viewBox="0 0 1400 620">
  <defs>
    <marker id="arrow" markerWidth="10" markerHeight="10" refX="8" refY="3" orient="auto" markerUnits="strokeWidth">
      <path d="M0,0 L0,6 L9,3 z" fill="#2f4f4f" />
    </marker>
  </defs>
  <rect x="0" y="0" width="1400" height="620" fill="#f7faf9"/>
  <text x="700" y="48" text-anchor="middle" font-size="28" font-family="Helvetica, Arial, sans-serif" fill="#143c3c" font-weight="700">Phase 2: Architecture Pivot</text>

  <rect x="40" y="80" width="640" height="500" rx="14" fill="#fff4f3" stroke="#e4a9a2" stroke-width="2"/>
  <text x="360" y="118" text-anchor="middle" font-size="22" font-family="Helvetica, Arial, sans-serif" fill="#8b2e26" font-weight="700">Before: Bidirectional Sync (High Conflict)</text>

  <rect x="90" y="180" width="180" height="78" rx="10" fill="#ffffff" stroke="#cc6b61"/>
  <text x="180" y="226" text-anchor="middle" font-size="17" font-family="Helvetica, Arial, sans-serif" fill="#2a2a2a">Git Markdown</text>

  <rect x="380" y="180" width="200" height="78" rx="10" fill="#ffffff" stroke="#cc6b61"/>
  <text x="480" y="226" text-anchor="middle" font-size="17" font-family="Helvetica, Arial, sans-serif" fill="#2a2a2a">Google Docs Body</text>

  <line x1="270" y1="205" x2="380" y2="205" stroke="#2f4f4f" stroke-width="2.4" marker-end="url(#arrow)"/>
  <line x1="380" y1="236" x2="270" y2="236" stroke="#2f4f4f" stroke-width="2.4" marker-end="url(#arrow)"/>

  <rect x="170" y="320" width="350" height="180" rx="12" fill="#ffe9e7" stroke="#cc6b61"/>
  <text x="345" y="360" text-anchor="middle" font-size="20" font-family="Helvetica, Arial, sans-serif" fill="#8b2e26" font-weight="700">Conflict Surface</text>
  <text x="345" y="396" text-anchor="middle" font-size="16" font-family="Helvetica, Arial, sans-serif" fill="#333">- Ownership ambiguity</text>
  <text x="345" y="426" text-anchor="middle" font-size="16" font-family="Helvetica, Arial, sans-serif" fill="#333">- Lossy conversion merges</text>
  <text x="345" y="456" text-anchor="middle" font-size="16" font-family="Helvetica, Arial, sans-serif" fill="#333">- Diff + reconciliation overhead</text>

  <rect x="720" y="80" width="640" height="500" rx="14" fill="#effaf2" stroke="#88c49a" stroke-width="2"/>
  <text x="1040" y="118" text-anchor="middle" font-size="22" font-family="Helvetica, Arial, sans-serif" fill="#1f6f3a" font-weight="700">After: Git-native Publish / Pull</text>

  <rect x="760" y="166" width="185" height="74" rx="10" fill="#ffffff" stroke="#63a678"/>
  <text x="852" y="210" text-anchor="middle" font-size="16" font-family="Helvetica, Arial, sans-serif" fill="#2a2a2a">Git Markdown</text>

  <rect x="980" y="166" width="180" height="74" rx="10" fill="#ffffff" stroke="#63a678"/>
  <text x="1070" y="210" text-anchor="middle" font-size="16" font-family="Helvetica, Arial, sans-serif" fill="#2a2a2a">book publish</text>

  <rect x="1195" y="166" width="140" height="74" rx="10" fill="#ffffff" stroke="#63a678"/>
  <text x="1265" y="210" text-anchor="middle" font-size="16" font-family="Helvetica, Arial, sans-serif" fill="#2a2a2a">Google Docs</text>

  <line x1="945" y1="202" x2="980" y2="202" stroke="#2f4f4f" stroke-width="2.4" marker-end="url(#arrow)"/>
  <line x1="1160" y1="202" x2="1195" y2="202" stroke="#2f4f4f" stroke-width="2.4" marker-end="url(#arrow)"/>

  <rect x="980" y="302" width="200" height="74" rx="10" fill="#ffffff" stroke="#63a678"/>
  <text x="1080" y="345" text-anchor="middle" font-size="16" font-family="Helvetica, Arial, sans-serif" fill="#2a2a2a">book pull</text>

  <rect x="760" y="302" width="185" height="74" rx="10" fill="#ffffff" stroke="#63a678"/>
  <text x="852" y="335" text-anchor="middle" font-size="16" font-family="Helvetica, Arial, sans-serif" fill="#2a2a2a">GitHub Issues</text>
  <text x="852" y="356" text-anchor="middle" font-size="14" font-family="Helvetica, Arial, sans-serif" fill="#4f4f4f">Agent execution queue</text>

  <line x1="1195" y1="338" x2="1180" y2="338" stroke="#2f4f4f" stroke-width="2.4" marker-end="url(#arrow)"/>
  <line x1="980" y1="338" x2="945" y2="338" stroke="#2f4f4f" stroke-width="2.4" marker-end="url(#arrow)"/>
  <line x1="760" y1="338" x2="730" y2="338" stroke="#2f4f4f" stroke-width="2.4" marker-end="url(#arrow)"/>
  <line x1="730" y1="338" x2="730" y2="202" stroke="#2f4f4f" stroke-width="2.4" marker-end="url(#arrow)"/>
  <line x1="730" y1="202" x2="760" y2="202" stroke="#2f4f4f" stroke-width="2.4" marker-end="url(#arrow)"/>

  <rect x="800" y="440" width="480" height="100" rx="10" fill="#ffffff" stroke="#63a678"/>
  <text x="1040" y="478" text-anchor="middle" font-size="19" font-family="Helvetica, Arial, sans-serif" fill="#1f6f3a" font-weight="700">Source of Truth: Git Markdown</text>
  <text x="1040" y="508" text-anchor="middle" font-size="16" font-family="Helvetica, Arial, sans-serif" fill="#2f2f2f">Docs become review artifacts; feedback returns as issues.</text>
</svg>
